<?xml version="1.0" encoding="utf-8"?>
<!-- Generator: Adobe Illustrator 19.0.0, SVG Export Plug-In . SVG Version: 6.00 Build 0)  -->
<svg version="1.1" id="Layer_1" xmlns="http://www.w3.org/2000/svg" xmlns:xlink="http://www.w3.org/1999/xlink" x="0px" y="0px"
	 viewBox="0 0 340 70.9" style="enable-background:new 0 0 340 70.9;" xml:space="preserve">
<style type="text/css">
	.st0{fill:#3C3C3B;}
</style>
<g id="XMLID_71_">
	<g id="XMLID_50_">
		<path id="XMLID_52_" class="st0" d="M7.9,36.1v-0.2c0-16.7,13-30.3,30.7-30.3c10.5,0,16.9,2.8,23,8l-8.1,9.8
			c-4.5-3.8-8.5-5.9-15.3-5.9c-9.4,0-16.8,8.3-16.8,18.2v0.2c0,10.7,7.4,18.6,17.7,18.6c4.7,0,8.9-1.2,12.1-3.5v-8.4h-13V31.5h25.4
			v25.4c-6,5.1-14.3,9.3-25,9.3C20.5,66.2,7.9,53.4,7.9,36.1z"/>
		<path id="XMLID_56_" class="st0" d="M73.5,36.1v-0.2c0-16.7,13.1-30.3,31.2-30.3c18.1,0,31,13.5,31,30.1v0.2
			c0,16.7-13.1,30.3-31.2,30.3S73.5,52.7,73.5,36.1z M122.3,36.1v-0.2c0-10-7.4-18.4-17.7-18.4S87,25.7,87,35.8v0.2
			c0,10,7.4,18.4,17.7,18.4S122.3,46.1,122.3,36.1z"/>
		<path id="XMLID_62_" class="st0" d="M147.3,6.6h12.9v46.9h29.2v11.7h-42.1V6.6z"/>
		<path id="XMLID_64_" class="st0" d="M199.7,6.6h12.9v58.6h-12.9V6.6z"/>
		<path id="XMLID_66_" class="st0" d="M222.2,6.6h14.2l15.3,41.3L267,6.6h13.9l-23.7,59h-11.4L222.2,6.6z"/>
	</g>
	<g id="XMLID_70_">
		<rect id="XMLID_69_" x="288.3" y="6" class="st0" width="45.2" height="11.7"/>
		<rect id="XMLID_68_" x="288.3" y="54" class="st0" width="45.2" height="11.7"/>
		<rect id="XMLID_49_" x="288.3" y="29.9" class="st0" width="41.3" height="11.7"/>
	</g>
</g>
</svg>
